name D:\school\WTK\thesis\model\3dpredictsim\Results\debug_batch\Pog_s1_tmt_aCst_d05_k800_ig24.mot
datacolumns 128
datarows 4
range 1.62525030 1.65775530
endheader
time	pelvis_tilt	pelvis_list	pelvis_rotation	pelvis_tx	pelvis_ty	pelvis_tz	hip_flexion_l	hip_adduction_l	hip_rotation_l	hip_flexion_r	hip_adduction_r	hip_rotation_r	knee_angle_l	knee_angle_r	ankle_angle_l	ankle_angle_r	subtalar_angle_l	subtalar_angle_r	tmt_angle_l	tmt_angle_r	mtp_angle_l	mtp_angle_r	lumbar_extension	lumbar_bending	lumbar_rotation	arm_flex_l	arm_add_l	arm_rot_l	arm_flex_r	arm_add_r	arm_rot_r	elbow_flex_l	elbow_flex_r	pro_sup_l	pro_sup_r	glut_med1_l/activation	glut_med2_l/activation	glut_med3_l/activation	glut_min1_l/activation	glut_min2_l/activation	glut_min3_l/activation	semimem_l/activation	semiten_l/activation	bifemlh_l/activation	bifemsh_l/activation	sar_l/activation	add_long_l/activation	add_brev_l/activation	add_mag1_l/activation	add_mag2_l/activation	add_mag3_l/activation	tfl_l/activation	pect_l/activation	grac_l/activation	glut_max1_l/activation	glut_max2_l/activation	glut_max3_l/activation	iliacus_l/activation	psoas_l/activation	quad_fem_l/activation	gem_l/activation	peri_l/activation	rect_fem_l/activation	vas_med_l/activation	vas_int_l/activation	vas_lat_l/activation	med_gas_l/activation	lat_gas_l/activation	soleus_l/activation	tib_post_l/activation	flex_dig_l/activation	flex_hal_l/activation	tib_ant_l/activation	per_brev_l/activation	per_long_l/activation	per_tert_l/activation	ext_dig_l/activation	ext_hal_l/activation	ercspn_l/activation	intobl_l/activation	extobl_l/activation	glut_med1_r/activation	glut_med2_r/activation	glut_med3_r/activation	glut_min1_r/activation	glut_min2_r/activation	glut_min3_r/activation	semimem_r/activation	semiten_r/activation	bifemlh_r/activation	bifemsh_r/activation	sar_r/activation	add_long_r/activation	add_brev_r/activation	add_mag1_r/activation	add_mag2_r/activation	add_mag3_r/activation	tfl_r/activation	pect_r/activation	grac_r/activation	glut_max1_r/activation	glut_max2_r/activation	glut_max3_r/activation	iliacus_r/activation	psoas_r/activation	quad_fem_r/activation	gem_r/activation	peri_r/activation	rect_fem_r/activation	vas_med_r/activation	vas_int_r/activation	vas_lat_r/activation	med_gas_r/activation	lat_gas_r/activation	soleus_r/activation	tib_post_r/activation	flex_dig_r/activation	flex_hal_r/activation	tib_ant_r/activation	per_brev_r/activation	per_long_r/activation	per_tert_r/activation	ext_dig_r/activation	ext_hal_r/activation	ercspn_r/activation	intobl_r/activation	extobl_r/activation	
          1.62525030	         -2.92841144	          2.24261373	         -5.66065378	          2.03156287	          0.85744495	          0.00215745	         31.54969208	          3.19493905	         -2.00564805	        -17.82480813	         -1.86485601	          7.08537534	        -14.92620897	         -8.14457280	          6.39568754	          0.05365508	         -2.83022597	         10.96595182	          0.04737194	          2.12646688	         -0.10565925	         21.83198751	         -1.85382933	         -0.62327026	          1.97852151	         -8.57266794	        -13.54165691	          8.67306321	          7.89594762	        -13.46121501	         18.35520310	         13.55082759	         34.92355936	         86.51662706	         86.51662706	          0.05902915	          0.05902916	          0.05000002	          0.05902917	          0.05902917	          0.05902913	          0.05902916	          0.05902898	          0.20410223	          0.05000006	          0.05000006	          0.11467125	          0.26595488	          0.10870048	          0.11793050	          0.10592716	          0.05000002	          0.06232063	          0.08037305	          0.05000012	          0.05000014	          0.14971901	          0.05663844	          0.05000003	          0.26096865	          0.25340963	          0.14066129	          0.05319755	          0.15838507	          0.15643509	          0.13714952	          0.05188045	          0.05267740	          0.05742222	          0.05000000	          0.05000006	          0.05000005	          0.57397133	          0.36070054	          0.20086949	          0.37080310	          0.56150570	          0.29960227	          0.06175764	          0.10034195	          0.10336767	          0.29165400	          0.10059444	          0.06968881	          0.31655038	          0.21341799	          0.10569607	          0.05000041	          0.05000003	          0.05000002	          0.07208650	          0.10731221	          0.09826195	          0.07923958	          0.05000029	          0.05000044	          0.05000017	          0.31196472	          0.09383092	          0.05000017	          0.05000033	          0.05000022	          0.05000018	          0.34569031	          0.57517470	          0.05000002	          0.05000006	          0.05000003	          0.20297735	          0.09110635	          0.06842189	          0.06287738	          0.29569914	          0.39897395	          0.29300415	          0.25565320	          0.25717670	          0.33585195	          0.05000000	          0.05902919	          0.15887449	          0.05000003	          0.05000000	          0.05000002	          0.05000000	          0.05000001	          0.05000002	
          1.63608530	         -2.92180941	          2.33180241	         -5.94029359	          2.04794305	          0.85640605	          0.00195362	         30.89459259	          3.54797203	         -1.75817565	        -17.62755003	         -2.16148861	          6.85656429	        -15.12987201	        -10.17607722	          5.75150384	         -0.75248698	         -3.29706388	         11.91772439	          0.03361583	          1.81806355	         -0.06639316	         22.89923171	         -1.65181839	         -0.84232135	          2.05009055	         -9.63700843	        -13.53460861	          8.52881969	          7.69510353	        -13.47474495	         18.52961671	         13.45925076	         36.04233845	         86.51662706	         86.51662706	          0.05000000	          0.05000001	          0.11181984	          0.05000001	          0.05000001	          0.05000001	          0.05000001	          0.05000001	          0.17288253	          0.05000001	          0.05000033	          0.09713104	          0.22527420	          0.34010345	          0.21324826	          0.11921623	          0.05000019	          0.05278861	          0.08401657	          0.07533159	          0.09537823	          0.12681785	          0.05000001	          0.06968857	          0.43659326	          0.21464781	          0.11914559	          0.06778083	          0.17793477	          0.19115431	          0.15831427	          0.05000005	          0.05902990	          0.05000000	          0.06254099	          0.06968896	          0.06968883	          0.48617604	          0.38941794	          0.23224600	          0.31408468	          0.52266331	          0.25377478	          0.05231113	          0.08499353	          0.08755644	          0.24704228	          0.08520741	          0.05902916	          0.26813049	          0.18077334	          0.08952869	          0.05000097	          0.05000022	          0.05003641	          0.06106007	          0.09089764	          0.18971622	          0.13373584	          0.06968874	          0.05902956	          0.05902934	          0.26424627	          0.09408925	          0.05901229	          0.05000107	          0.05000150	          0.05902912	          0.29281314	          0.52671289	          0.05902917	          0.05902931	          0.05902917	          0.17192971	          0.10728333	          0.15982548	          0.15982531	          0.25046867	          0.33794644	          0.24818591	          0.21654822	          0.21783872	          0.28447970	          0.05000000	          0.05000004	          0.14332223	          0.05000000	          0.05000000	          0.05000001	          0.05755089	          0.06525567	          0.05196289	
          1.64692030	         -2.91128490	          2.42128486	         -6.19079997	          2.06457655	          0.85536627	          0.00176096	         30.06962356	          3.83285352	         -1.48470553	        -17.34884609	         -2.44811406	          6.61548872	        -15.56771686	        -12.34025270	          5.29063150	         -1.73225610	         -3.78235432	         12.79788390	         -0.01821363	          1.50437050	         -0.18773592	         23.79596220	         -1.43141564	         -1.06752756	          2.11077014	        -10.70354217	        -13.53170603	          8.43604500	          7.40633705	        -13.48853754	         18.61953322	         13.39828371	         37.14293286	         86.51662706	         86.51662706	          0.25893125	          0.26132244	          0.32571545	          0.36628297	          0.23158563	          0.20360889	          0.07577094	          0.06293749	          0.14856221	          0.08227366	          0.05902911	          0.08227378	          0.19081602	          0.28808086	          0.18062959	          0.11148325	          0.05000006	          0.05827325	          0.07116573	          0.16524958	          0.13646930	          0.10741967	          0.05666329	          0.05902894	          0.36981147	          0.18181507	          0.25375303	          0.05741300	          0.15071768	          0.16191515	          0.13409835	          0.05000013	          0.05000064	          0.05563918	          0.05297466	          0.05902929	          0.05902919	          0.57313182	          0.41909971	          0.21237600	          0.45799321	          0.60393795	          0.30952609	          0.06747341	          0.10332303	          0.07416371	          0.34684078	          0.07217399	          0.05000002	          0.36173140	          0.15312207	          0.07583429	          0.05106429	          0.05000003	          0.05000002	          0.05172027	          0.07699452	          0.16069703	          0.11327948	          0.05902908	          0.05000038	          0.05000017	          0.26787319	          0.07969755	          0.05000014	          0.05000037	          0.05000018	          0.05000011	          0.24802415	          0.49547994	          0.05000003	          0.05000018	          0.05000004	          0.14563115	          0.09087316	          0.13537841	          0.13537826	          0.21215670	          0.28625378	          0.21022311	          0.18342477	          0.18451789	          0.24096538	          0.05000001	          0.09949613	          0.18342929	          0.05000003	          0.06096710	          0.05000006	          0.06092993	          0.05527409	          0.05000000	
          1.65775530	         -2.89880530	          2.50084408	         -6.40532376	          2.08125227	          0.85435372	          0.00154503	         29.16961077	          4.10031659	         -1.21280056	        -16.96607576	         -2.71628313	          6.37988000	        -15.94886970	        -14.64968537	          4.92767083	         -2.83905518	         -4.28637564	         13.61882000	         -0.02333196	          1.15865506	         -0.18766895	         24.41624596	         -1.21444604	         -1.28775052	          2.16115405	        -11.72091580	        -13.52812166	          8.40529669	          7.06543310	        -13.50908043	         18.64837726	         13.33592247	         38.20308139	         86.51662706	         86.51662706	          0.35485437	          0.37325574	          0.41611520	          0.31025599	          0.19616240	          0.25643461	          0.07362101	          0.11308568	          0.12583798	          0.06968902	          0.05000009	          0.06968910	          0.16162860	          0.24401583	          0.21824187	          0.16328932	          0.05000004	          0.05000112	          0.12222745	          0.24910850	          0.19267980	          0.15996707	          0.05000001	          0.05000001	          0.31324470	          0.15400445	          0.23383750	          0.05000000	          0.16526104	          0.22084402	          0.16359048	          0.05000000	          0.05000000	          0.05000000	          0.05000000	          0.05000012	          0.05000003	          0.63665350	          0.35499380	          0.17989077	          0.68136011	          0.62546458	          0.39577287	          0.08485510	          0.08751863	          0.06281955	          0.29378764	          0.06113418	          0.05000000	          0.30640058	          0.12970036	          0.06423460	          0.06877264	          0.05000002	          0.05000002	          0.05000001	          0.06521739	          0.18354258	          0.15263683	          0.05000019	          0.05000088	          0.05001366	          0.22689908	          0.06750763	          0.05000008	          0.05000034	          0.05000023	          0.05000017	          0.21008610	          0.44458597	          0.05000002	          0.05000008	          0.05000002	          0.12335525	          0.11467089	          0.11467090	          0.11467088	          0.17970497	          0.24246808	          0.17806715	          0.15536791	          0.15629384	          0.20410706	          0.10569114	          0.15443024	          0.15537412	          0.05000037	          0.17868072	          0.05000023	          0.09476330	          0.05000000	          0.05000000	
